<svg t="1654139501723" class="icon" viewBox="0 0 1024 1024" version="1.1" xmlns="http://www.w3.org/2000/svg" p-id="8968" width="32" height="32"><path d="M981.333333 138.666667v661.333333a53.393333 53.393333 0 0 1-53.333333 53.333333h-32v-85.333333a64 64 0 0 0 45.253333-109.253333l-149.333333-149.333334a64 64 0 0 0-90.506667 0l-149.333333 149.333334A64 64 0 0 0 597.333333 768v85.333333H96a53.393333 53.393333 0 0 1-53.333333-53.333333V138.666667a53.073333 53.073333 0 0 1 3.693333-19.466667l427.926667 427.926667a53.333333 53.333333 0 0 0 75.426666 0l427.926667-427.926667A53.073333 53.073333 0 0 1 981.333333 138.666667zM512 520.08a10.6 10.6 0 0 0 7.54-3.126667l427.926667-427.926666A53.073333 53.073333 0 0 0 928 85.333333H96a53.073333 53.073333 0 0 0-19.466667 3.693334l427.926667 427.926666a10.6 10.6 0 0 0 7.54 3.126667z m399.086667 168.833333l-149.333334-149.333333a21.333333 21.333333 0 0 0-30.173333 0l-149.333333 149.333333A21.333333 21.333333 0 0 0 597.333333 725.333333h42.666667v234.666667a21.333333 21.333333 0 0 0 21.333333 21.333333h170.666667a21.333333 21.333333 0 0 0 21.333333-21.333333v-234.666667h42.666667a21.333333 21.333333 0 0 0 15.086667-36.42z" fill="#13227a" p-id="8969"></path></svg>
