<svg t="1654139576592" class="icon" viewBox="0 0 1024 1024" version="1.1" xmlns="http://www.w3.org/2000/svg" p-id="10597" width="32" height="32"><path d="M512 36.571429c262.582857 0 475.428571 212.845714 475.428571 475.428571S774.582857 987.428571 512 987.428571 36.571429 774.582857 36.571429 512 249.417143 36.571429 512 36.571429z m-5.668571 219.574857a7.314286 7.314286 0 0 0-2.066286-0.128l-1.005714 0.146285-220.233143 48.64a57.837714 57.837714 0 0 0-45.220572 53.156572l-0.091428 3.382857V632.685714a115.821714 115.821714 0 0 0 55.478857 98.889143l4.022857 2.340572 179.565714 99.803428a57.618286 57.618286 0 0 0 52.48 1.810286l197.540572-101.613714a115.803429 115.803429 0 0 0 59.392-96.566858L786.285714 632.685714V361.325714a57.856 57.856 0 0 0-42.057143-55.698285l-3.254857-0.822858-234.660571-48.676571zM683.995429 438.857143c1.773714 0 3.492571 0.694857 4.754285 1.92 2.249143 2.194286 2.56 5.558857 0.969143 8.082286l-0.969143 1.188571-187.556571 182.747429a25.417143 25.417143 0 0 1-14.738286 7.021714l-2.706286 0.182857h-0.402285c-5.522286 0-11.062857-1.773714-15.634286-5.302857l-2.194286-1.901714-116.132571-109.513143a6.454857 6.454857 0 0 1-1.974857-4.626286c0-3.163429 2.304-5.814857 5.357714-6.436571l1.353143-0.128h52.370286c1.334857 0 2.614857 0.402286 3.712 1.097142l1.024 0.841143 72.137142 66.596572 143.524572-139.849143a6.784 6.784 0 0 1 3.437714-1.792l1.316572-0.128h52.352z" fill="#1296db" p-id="10598"></path></svg>
